<svg width="144" height="72" viewBox="0 0 144 72" fill="none" xmlns="http://www.w3.org/2000/svg">
<mask id="mask0_1129_2600" style="mask-type:alpha" maskUnits="userSpaceOnUse" x="1" y="0" width="141" height="71">
<rect width="140.8" height="70.4" transform="translate(1.2002 0.199951)" fill="url(#paint0_linear_1129_2600)"/>
</mask>
<g mask="url(#mask0_1129_2600)">
<path opacity="0.1" d="M138.087 11.7881L141.922 21.3747C141.973 21.5046 142 21.6433 142 21.7832V69.5C142 70.1075 141.508 70.6 140.9 70.6H2.6585C1.92768 70.6 1.40005 69.9005 1.60082 69.1978L5.64334 55.0489C5.88879 54.1899 7.00184 53.9663 7.55998 54.664L10.5913 58.4531C10.9625 58.9171 11.635 59.0025 12.1103 58.646L16.2234 55.5611C16.265 55.5299 16.3044 55.4958 16.3412 55.459L20.8741 50.9261C21.1473 50.6528 21.5438 50.543 21.9187 50.6367L25.3548 51.4958C25.9125 51.6352 26.4834 51.3217 26.6652 50.7764L30.3732 39.6522C30.7028 38.6636 32.0944 38.6448 32.4506 39.6242L35.6572 48.4424C35.9653 49.2898 37.1061 49.4269 37.6062 48.6766L40.8901 43.7508C41.1978 43.2892 41.8011 43.129 42.2973 43.3771L45.4277 44.9423C45.9886 45.2227 46.6702 44.9782 46.9249 44.4052L50.2206 36.9898C50.642 36.0416 52.0213 36.1506 52.2887 37.1531L55.7663 50.1943C56.0273 51.1729 57.3601 51.3087 57.813 50.4028L60.3994 45.2302C60.8313 44.3664 62.087 44.4386 62.417 45.3462L65.0399 52.5591C65.433 53.6401 67.012 53.4687 67.164 52.3286L71.306 21.2635C71.4264 20.3603 72.5299 19.9868 73.1742 20.6311L75.3411 22.798C75.9263 23.3832 76.9237 23.137 77.1694 22.3468L81.1269 9.61626C81.3702 8.83382 82.3528 8.58244 82.9419 9.15194L85.5083 11.633C86.0704 12.1763 87.0039 11.9765 87.2942 11.2506L90.8047 2.47428C91.1572 1.59303 92.3855 1.54194 92.8099 2.39087L96.5791 9.92914C96.6855 10.142 96.8581 10.3146 97.071 10.4211L101.075 12.4231C101.492 12.6318 101.996 12.5544 102.332 12.2301L105.943 8.73886C106.405 8.29236 107.149 8.33499 107.557 8.83129L110.979 12.9945C111.419 13.5299 112.239 13.5299 112.679 12.9945L115.426 9.65113C116.008 8.94335 117.15 9.21523 117.35 10.1093L121.211 27.3555C121.437 28.3653 122.805 28.5327 123.268 27.6071L126.325 21.4931C126.632 20.8793 127.42 20.6933 127.969 21.1051L130.722 23.17C131.323 23.6205 132.188 23.3501 132.426 22.6378L136.022 11.8488C136.346 10.8767 137.706 10.8367 138.087 11.7881Z" fill="#5ABEE6"/>
</g>
<path d="M142 21.5714L138.087 11.7881C137.706 10.8367 136.346 10.8767 136.022 11.8488L132.426 22.6378C132.188 23.3501 131.323 23.6205 130.722 23.17L127.969 21.1051C127.42 20.6933 126.632 20.8793 126.325 21.4931L123.268 27.6071C122.805 28.5327 121.437 28.3653 121.211 27.3555L117.35 10.1093C117.15 9.21523 116.008 8.94335 115.426 9.65113L112.679 12.9945C112.239 13.5299 111.419 13.5299 110.979 12.9945L107.557 8.83129C107.149 8.33499 106.405 8.29236 105.943 8.73886L102.332 12.2301C101.996 12.5544 101.492 12.6318 101.075 12.4231L97.071 10.4211C96.8581 10.3146 96.6855 10.142 96.5791 9.92914L92.8099 2.39087C92.3855 1.54194 91.1573 1.59303 90.8048 2.47428L87.2942 11.2506C87.0039 11.9765 86.0704 12.1763 85.5083 11.633L82.9419 9.15194C82.3528 8.58244 81.3702 8.83382 81.1269 9.61626L77.1694 22.3467C76.9237 23.137 75.9263 23.3832 75.3411 22.798L73.1742 20.6311C72.5299 19.9868 71.4264 20.3603 71.306 21.2635L67.164 52.3286C67.012 53.4687 65.433 53.6401 65.0399 52.5591L62.417 45.3462C62.087 44.4386 60.8313 44.3664 60.3994 45.2302L57.813 50.4028C57.3601 51.3087 56.0273 51.1729 55.7663 50.1943L52.2887 37.1531C52.0213 36.1506 50.642 36.0416 50.2206 36.9898L46.9249 44.4052C46.6702 44.9782 45.9886 45.2227 45.4277 44.9423L42.2973 43.3771C41.8011 43.129 41.1978 43.2892 40.8901 43.7508L37.6062 48.6766C37.1061 49.4269 35.9653 49.2898 35.6572 48.4424L32.4506 39.6242C32.0944 38.6448 30.7028 38.6636 30.3732 39.6522L26.6652 50.7764C26.4834 51.3217 25.9125 51.6352 25.3548 51.4958L21.9187 50.6367C21.5438 50.543 21.1473 50.6528 20.8741 50.9261L16.3412 55.459C16.3044 55.4958 16.265 55.5299 16.2234 55.5611L12.1103 58.646C11.635 59.0025 10.9625 58.9171 10.5913 58.4531L7.55998 54.664C7.00184 53.9663 5.88879 54.1899 5.64334 55.0489L1.2002 70.6" stroke="#5ABEE6" stroke-width="2.2" stroke-linecap="round" stroke-linejoin="round"/>
<g opacity="0.2">
<rect x="62.1718" y="11.2001" width="18.975" height="18.975" rx="9.4875" stroke="#5ABEE6" stroke-width="2.2"/>
</g>
<rect x="66.9843" y="16.0126" width="9.35" height="9.35" rx="4.675" fill="white"/>
<rect x="66.9843" y="16.0126" width="9.35" height="9.35" rx="4.675" stroke="#5ABEE6" stroke-width="2.2"/>
<defs>
<linearGradient id="paint0_linear_1129_2600" x1="70.4" y1="0" x2="70.4" y2="70.4" gradientUnits="userSpaceOnUse">
<stop/>
<stop offset="1" stop-opacity="0"/>
</linearGradient>
</defs>
</svg>
