<svg width="51" height="51" viewBox="0 0 51 51" fill="none" xmlns="http://www.w3.org/2000/svg">
<path d="M26.0838 45.4038C25.6843 44.0603 26.1312 42.3791 27.4674 41.3909C28.4931 40.6324 29.7132 40.3859 30.7399 40.6298C30.8747 40.6618 31.0187 40.6282 31.1167 40.5302C31.2469 40.4 31.2623 40.1942 31.1528 40.0461L30.9572 39.7817C29.6833 38.0591 30.3188 35.4253 32.3735 33.8763C32.0746 33.6727 31.7447 33.4541 31.3934 33.2241L31.0219 32.9816C30.5765 32.6913 30.1094 32.3868 29.688 32.0969C28.4778 32.8667 27.0414 33.3126 25.5008 33.3126C23.2235 33.3126 21.1738 32.3382 19.7458 30.7836C18.8978 31.2442 17.9056 31.7076 16.8826 32.1063C15.2142 32.7564 13.2677 33.3126 11.6087 33.3126C9.46091 33.3126 7.24551 32.3826 5.52634 31.4394C8.08332 40.0517 16.0585 46.3334 25.5008 46.3334C25.9453 46.3334 26.2105 45.8299 26.0838 45.4038Z" fill="#1C274C"/>
<path d="M20.8133 25.5001C20.8133 22.9112 22.912 20.8126 25.5008 20.8126C28.0896 20.8126 30.1883 22.9112 30.1883 25.5001C30.1883 26.8065 29.6539 27.9881 28.7917 28.8381C28.6846 28.9107 28.5847 28.9979 28.4952 29.0996L28.4738 29.1243C27.6648 29.7887 26.6294 30.1876 25.5008 30.1876C22.912 30.1876 20.8133 28.0889 20.8133 25.5001Z" fill="#1C274C"/>
<path fill-rule="evenodd" clip-rule="evenodd" d="M41.0814 31.3229C42.5552 30.2329 44.4301 30.2003 45.5561 31.16C46.063 29.3603 46.3342 27.4619 46.3342 25.5001C46.3342 21.3789 45.1375 17.5373 43.0728 14.3036L41.1882 16.1883C40.578 16.7985 39.5886 16.7985 38.9785 16.1883C38.3683 15.5781 38.3683 14.5888 38.9785 13.9786L41.0618 11.8952C41.1009 11.8561 41.1415 11.8195 41.1836 11.7854C37.3648 7.42228 31.7546 4.66675 25.5008 4.66675C21.3797 4.66675 17.538 5.86335 14.3043 7.92807L16.1882 9.81189C16.7984 10.4221 16.7984 11.4114 16.1882 12.0216C15.578 12.6318 14.5886 12.6318 13.9785 12.0216L11.8951 9.93827C11.8563 9.89946 11.82 9.85911 11.7861 9.81742C7.42297 13.6361 4.66748 19.2463 4.66748 25.5001C4.66748 26.0925 4.69222 26.6792 4.7407 27.2591C5.19143 27.5788 5.74905 27.9522 6.37387 28.3244C8.07948 29.3403 10.0257 30.1876 11.6087 30.1876C12.6842 30.1876 14.1985 29.7983 15.7479 29.1945C16.6238 28.8532 17.4474 28.4685 18.1325 28.1031C17.8448 27.2889 17.6883 26.4128 17.6883 25.5001C17.6883 21.1854 21.1861 17.6876 25.5008 17.6876C29.8155 17.6876 33.3133 21.1854 33.3133 25.5001C33.3133 27.1192 32.8208 28.6232 31.9774 29.8706C32.2153 30.0279 32.4754 30.1979 32.7528 30.3792L33.1051 30.6095C34.0992 31.2604 35.3191 32.0669 35.9807 32.7285C36.0079 32.7558 36.034 32.7838 36.0588 32.8125C37.0486 32.9348 37.9355 33.3972 38.5206 34.1884L39.0943 34.9641C39.1591 35.0518 39.2867 35.0613 39.3638 34.9842C39.4045 34.9434 39.4227 34.8856 39.415 34.8285C39.2508 33.6087 39.8586 32.2272 41.0814 31.3229ZM34.7708 9.66675C35.4612 10.1845 35.6011 11.1639 35.0833 11.8542L31.9583 16.0209C31.4405 16.7113 30.4612 16.8512 29.7708 16.3334C29.0805 15.8156 28.9405 14.8363 29.4583 14.1459L32.5833 9.97925C33.1011 9.28889 34.0805 9.14898 34.7708 9.66675ZM22.3118 7.72856C21.7016 8.33875 21.7016 9.32807 22.3118 9.93827L24.3951 12.0216C25.0053 12.6318 25.9946 12.6318 26.6048 12.0216C27.215 11.4114 27.215 10.4221 26.6048 9.81189L24.5215 7.72856C23.9113 7.11837 22.922 7.11837 22.3118 7.72856ZM18.0198 16.2504C18.2432 17.0839 19.1 17.5786 19.9335 17.3552L22.7794 16.5927C23.6129 16.3693 24.1076 15.5126 23.8842 14.679C23.6609 13.8455 22.8041 13.3508 21.9706 13.5742L19.1247 14.3367C18.2911 14.5601 17.7965 15.4168 18.0198 16.2504ZM12.7851 15.4452C11.9995 15.8023 11.6521 16.7286 12.0092 17.5142L13.2285 20.1964C13.5856 20.982 14.5119 21.3293 15.2975 20.9722C16.0831 20.6151 16.4304 19.6888 16.0733 18.9032L14.8541 16.221C14.497 15.4354 13.5707 15.0881 12.7851 15.4452ZM35.3986 23.7051C36.2606 23.6646 36.9265 22.933 36.886 22.071L36.7477 19.128C36.7072 18.266 35.9756 17.6 35.1136 17.6406C34.2516 17.6811 33.5856 18.4127 33.6261 19.2747L33.7645 22.2177C33.805 23.0797 34.5366 23.7457 35.3986 23.7051ZM38.91 25.6221C39.4803 26.2697 40.4676 26.3323 41.1152 25.762L44.6112 22.6831C45.2588 22.1128 45.3215 21.1255 44.7511 20.4779C44.1808 19.8302 43.1935 19.7676 42.5459 20.3379L39.0499 23.4168C38.4023 23.9871 38.3396 24.9745 38.91 25.6221ZM14.9645 23.1975C15.6608 23.7072 15.8122 24.6849 15.3025 25.3812L13.5625 27.7588C13.0528 28.4551 12.0751 28.6065 11.3788 28.0968C10.6824 27.5872 10.531 26.6095 11.0407 25.9131L12.7808 23.5356C13.2904 22.8392 14.2681 22.6879 14.9645 23.1975ZM7.92195 17.5604C7.06034 17.6084 6.40078 18.3458 6.44878 19.2074L6.61266 22.1491C6.66066 23.0108 7.39804 23.6703 8.25965 23.6223C9.12126 23.5743 9.78082 22.8369 9.73282 21.9753L9.56894 19.0336C9.52094 18.172 8.78356 17.5124 7.92195 17.5604Z" fill="#1C274C"/>
</svg>
