<svg width="51" height="51" viewBox="0 0 51 51" fill="none" xmlns="http://www.w3.org/2000/svg">
<path fill-rule="evenodd" clip-rule="evenodd" d="M25.5 24.9792C26.3629 24.9792 27.0625 25.6788 27.0625 26.5417V28.1042H28.625C29.4879 28.1042 30.1875 28.8038 30.1875 29.6667C30.1875 30.5297 29.4879 31.2292 28.625 31.2292H27.0625V32.7917C27.0625 33.6547 26.3629 34.3542 25.5 34.3542C24.6371 34.3542 23.9375 33.6547 23.9375 32.7917V31.2292H22.375C21.5121 31.2292 20.8125 30.5297 20.8125 29.6667C20.8125 28.8038 21.5121 28.1042 22.375 28.1042H23.9375V26.5417C23.9375 25.6788 24.6371 24.9792 25.5 24.9792Z" fill="#1C274C"/>
<path fill-rule="evenodd" clip-rule="evenodd" d="M25.3915 3.10425C23.5197 3.10419 21.9588 3.10414 20.7197 3.27074C19.4118 3.44658 18.2309 3.83339 17.282 4.78229C16.3331 5.73118 15.9463 6.91202 15.7705 8.21992C15.6039 9.45905 15.6039 11.0199 15.604 12.8918L15.604 13.0537C11.3932 13.1914 8.86466 13.6835 7.10728 15.4409C4.6665 17.8816 4.6665 21.81 4.6665 29.6668C4.6665 37.5235 4.6665 41.4519 7.10728 43.8927C9.54805 46.3334 13.4764 46.3334 21.3331 46.3334H29.6665C37.5232 46.3334 41.4516 46.3334 43.8924 43.8927C46.3332 41.4519 46.3332 37.5235 46.3332 29.6668C46.3332 21.81 46.3332 17.8816 43.8924 15.4409C42.135 13.6835 39.6065 13.1914 35.3957 13.0537L35.3957 12.8918C35.3957 11.02 35.3958 9.45904 35.2292 8.21992C35.0533 6.91202 34.6665 5.73118 33.7176 4.78229C32.7687 3.83339 31.5879 3.44658 30.28 3.27074C29.0409 3.10414 27.48 3.10419 25.6082 3.10425H25.3915ZM32.2707 13.004V13.0001C32.2707 10.9917 32.2674 9.64265 32.1321 8.63632C32.0028 7.67494 31.7794 7.26349 31.5079 6.992C31.2364 6.7205 30.825 6.49712 29.8636 6.36787C28.8573 6.23257 27.5082 6.22925 25.4998 6.22925C23.4915 6.22925 22.1424 6.23257 21.1361 6.36787C20.1747 6.49712 19.7632 6.7205 19.4917 6.992C19.2203 7.26349 18.9969 7.67494 18.8676 8.63632C18.7323 9.64265 18.729 10.9917 18.729 13.0001V13.004C19.5457 13.0001 20.4125 13.0001 21.3332 13.0001H29.6665C30.5872 13.0001 31.4539 13.0001 32.2707 13.004ZM33.8332 29.6668C33.8332 34.2691 30.1022 38.0001 25.4998 38.0001C20.8975 38.0001 17.1665 34.2691 17.1665 29.6668C17.1665 25.0644 20.8975 21.3334 25.4998 21.3334C30.1022 21.3334 33.8332 25.0644 33.8332 29.6668Z" fill="#1C274C"/>
</svg>
